<svg width="28" height="28" viewBox="0 0 24 24" fill="none" xmlns="http://www.w3.org/2000/svg">
<path d="M12 2.74988C8.31 2.74988 5.3 5.75988 5.3 9.44988C5.3 14.0299 11.3 20.7699 11.55 21.0499C11.79 21.3199 12.21 21.3199 12.45 21.0499C12.71 20.7699 18.7 14.0299 18.7 9.44988C18.7 5.75988 15.69 2.74988 12 2.74988Z" stroke="white" stroke-width="1.5" stroke-linecap="round" stroke-linejoin="round"/>
<path d="M12.3849 11.7852C13.6776 11.5795 14.5587 10.3647 14.3529 9.07204C14.1472 7.77936 12.9325 6.89824 11.6398 7.104C10.3471 7.30976 9.46597 8.52449 9.67173 9.81717C9.87749 11.1099 11.0922 11.991 12.3849 11.7852Z" stroke="white" stroke-width="1.5" stroke-linecap="round" stroke-linejoin="round"/>
</svg>

