<svg width="24" height="24" viewBox="0 0 24 24" fill="none" xmlns="http://www.w3.org/2000/svg">
<path d="M15.06 8.92004H19C19.5967 8.92004 20.169 9.1571 20.591 9.57905C21.0129 10.001 21.25 10.5733 21.25 11.17V19C21.2497 19.295 21.192 19.5871 21.08 19.86C20.8488 20.4108 20.4108 20.8489 19.86 21.08C19.5871 21.1921 19.295 21.2498 19 21.25H5C4.40326 21.25 3.83097 21.013 3.40901 20.591C2.98705 20.1691 2.75 19.5968 2.75 19V11.17C2.75 10.5733 2.98705 10.001 3.40901 9.57905C3.83097 9.1571 4.40326 8.92004 5 8.92004H16.1" stroke="black" stroke-width="1.5" stroke-linecap="round" stroke-linejoin="round"/>
<path d="M6.11 18.16H7.11" stroke="black" stroke-width="1.5" stroke-linecap="round" stroke-linejoin="round"/>
<path d="M3.14 12.8102H21.25" stroke="black" stroke-width="1.5" stroke-linecap="round" stroke-linejoin="round"/>
<path d="M8.86 3.68001C9.79087 3.09536 10.863 2.77446 11.962 2.75156C13.061 2.72867 14.1456 3.00463 15.1 3.55001" stroke="black" stroke-width="1.5" stroke-linecap="round" stroke-linejoin="round"/>
<path d="M10.47 6.31007C10.9572 6.01018 11.5179 5.85098 12.09 5.85007C12.6232 5.84594 13.1479 5.98402 13.61 6.25007" stroke="black" stroke-width="1.5" stroke-linecap="round" stroke-linejoin="round"/>
</svg>
