<svg width="48" height="48" viewBox="0 0 48 48" fill="none" xmlns="http://www.w3.org/2000/svg">
<circle cx="24" cy="24" r="24" fill="#7DDBB9"/>
<path d="M24 34.7867C29.9573 34.7867 34.7867 29.9573 34.7867 24C34.7867 18.0426 29.9573 13.2133 24 13.2133C18.0427 13.2133 13.2133 18.0426 13.2133 24C13.2133 29.9573 18.0427 34.7867 24 34.7867Z" stroke="white" stroke-width="1.5" stroke-linecap="round" stroke-linejoin="round"/>
<path d="M33.2533 24H36.3333" stroke="white" stroke-width="1.5" stroke-linecap="round" stroke-linejoin="round"/>
<path d="M14.7467 24H11.6667" stroke="white" stroke-width="1.5" stroke-linecap="round" stroke-linejoin="round"/>
<path d="M24 14.7466V11.6666" stroke="white" stroke-width="1.5" stroke-linecap="round" stroke-linejoin="round"/>
<path d="M24 33.2533V36.3333" stroke="white" stroke-width="1.5" stroke-linecap="round" stroke-linejoin="round"/>
<path d="M24 27.0799C25.701 27.0799 27.08 25.701 27.08 23.9999C27.08 22.2989 25.701 20.9199 24 20.9199C22.299 20.9199 20.92 22.2989 20.92 23.9999C20.92 25.701 22.299 27.0799 24 27.0799Z" stroke="white" stroke-width="1.5" stroke-linecap="round" stroke-linejoin="round"/>
</svg>
