<svg width="28" height="28" viewBox="0 0 24 24" fill="none" xmlns="http://www.w3.org/2000/svg">
<path d="M11.8 12.46C13.1642 12.46 14.27 11.3542 14.27 9.99002C14.27 8.62588 13.1642 7.52002 11.8 7.52002C10.4359 7.52002 9.33001 8.62588 9.33001 9.99002C9.33001 11.3542 10.4359 12.46 11.8 12.46Z" stroke="white" stroke-width="1.5" stroke-linecap="round" stroke-linejoin="round"/>
<path d="M6.82001 19.29V17.88C6.82001 16.24 8.15001 14.92 9.78001 14.92H14.21C15.85 14.92 17.17 16.25 17.17 17.88V19.29" stroke="white" stroke-width="1.5" stroke-linecap="round" stroke-linejoin="round"/>
<path d="M12 21.2499C17.1086 21.2499 21.25 17.1085 21.25 11.9999C21.25 6.89124 17.1086 2.74988 12 2.74988C6.89136 2.74988 2.74999 6.89124 2.74999 11.9999C2.74999 17.1085 6.89136 21.2499 12 21.2499Z" stroke="white" stroke-width="1.5" stroke-linecap="round" stroke-linejoin="round"/>
</svg>
